#!OML:ASF H:\Dans Jumps\Project 1\Capture day 1\Session 1\subject.ASF
:FULLY-SPECIFIED
:DEGREES
129
root 0.262715 15.8751 -16.3675 21.4291 -1.25701 -1.66981
lowerback 20.4627 0.196604 0.326904
upperback 10.641 0.336735 1.92545
thorax 0.0640169 0.112802 1.79198
lowerneck -14.9168 0.800564 -0.374767
upperneck 13.831 1.53492 -2.21068
head 6.68661 0.523739 -0.497604
rclavicle 1.37161e-014 0
rhumerus -31.0804 -8.18214 -77.462
rradius 31.4251
rwrist 21.8481
rhand -18.9709 -25.7373
rfingers 7.12502
rthumb 7.33319 -55.5902
lclavicle 1.37161e-014 0
lhumerus -30.6587 -7.11727 88.8671
lradius 25.1906
lwrist 21.0981
lhand -29.2134 -4.7786
lfingers 7.12502
lthumb -2.5578 25.1858
rfemur -60.3643 -2.911 20.4379
rtibia 59.0694
rfoot -19.0766 -1.76448
rtoes 4.91279
lfemur -60.1358 8.40889 -22.4317
ltibia 58.6669
lfoot -18.1137 5.53781
ltoes 2.10806
130
root 0.264335 15.9026 -16.399 21.5462 -1.26611 -1.67011
lowerback 20.6412 0.195102 0.307007
upperback 10.6862 0.332584 1.92175
thorax 0.0241176 0.109704 1.80063
lowerneck -14.9344 0.8119 -0.3573
upperneck 13.6178 1.54817 -2.24934
head 6.62158 0.529964 -0.511496
rclavicle -5.76476e-015 4.17448e-015
rhumerus -31.1528 -8.17972 -77.4013
rradius 31.4369
rwrist 21.8495
rhand -18.9582 -25.7158
rfingers 7.12502
rthumb 7.3455 -55.5683
lclavicle -5.76476e-015 4.17448e-015
lhumerus -30.7777 -7.17598 88.8915
lradius 25.1499
lwrist 21.1091
lhand -29.2006 -4.76314
lfingers 7.12502
lthumb -2.54548 25.2014
rfemur -60.5876 -2.91902 20.4676
rtibia 59.2046
rfoot -19.1101 -1.78412
rtoes 4.82106
lfemur -60.3629 8.38962 -22.476
ltibia 58.8107
lfoot -18.1321 5.60059
ltoes 2.03705
131
root 0.264204 15.8615 -16.4202 21.6575 -1.27742 -1.67441
lowerback 20.8226 0.194189 0.289368
upperback 10.7316 0.329505 1.91814
thorax -0.0167763 0.107207 1.8079
lowerneck -14.9506 0.823256 -0.342165
upperneck 13.4098 1.56196 -2.28816
head 6.55811 0.5363 -0.524998
rclavicle -3.97569e-015 4.57205e-015
rhumerus -31.2192 -8.17719 -77.3461
rradius 31.4531
rwrist 21.8425
rhand -18.9451 -25.6966
rfingers 7.12502
rthumb 7.35813 -55.5487
lclavicle -3.97569e-015 4.57205e-015
lhumerus -30.8862 -7.23114 88.9159
lradius 25.1106
lwrist 21.1223
lhand -29.2024 -4.75458
lfingers 7.12502
lthumb -2.54723 25.21
rfemur -61.0796 -2.93341 20.4975
rtibia 59.6133
rfoot -19.1439 -1.7934
rtoes 4.72879
lfemur -60.8581 8.38883 -22.5135
ltibia 59.227
lfoot -18.1536 5.64678
ltoes 1.96321
132
root 0.26394 15.8204 -16.4413 21.7623 -1.29034 -1.68317
lowerback 21.0079 0.193211 0.276136
upperback 10.7786 0.327011 1.91379
thorax -0.0577513 0.105168 1.8118
lowerneck -14.964 0.834738 -0.330626
upperneck 13.2027 1.57619 -2.32459
head 6.49448 0.542911 -0.537105
rclavicle -2.5842e-015 1.71949e-014
rhumerus -31.2774 -8.17117 -77.2979
rradius 31.4722
rwrist 21.8233
rhand -18.9268 -25.6844
rfingers 7.12502
rthumb 7.37576 -55.5358
lclavicle -2.5842e-015 1.71949e-014
lhumerus -30.9838 -7.27308 88.9352
lradius 25.0767
lwrist 21.1314
lhand -29.1872 -4.75036
lfingers 7.12502
lthumb -2.53255 25.2144
rfemur -61.5627 -2.94479 20.5317
rtibia 60.0189
rfoot -19.1772 -1.80118
rtoes 4.63876
lfemur -61.3474 8.3976 -22.5482
ltibia 59.6428
lfoot -18.1772 5.6859
ltoes 1.8873
133
root 0.263513 15.7792 -16.4621 21.8622 -1.30508 -1.698
lowerback 21.1971 0.192679 0.265407
upperback 10.8272 0.325467 1.91026
thorax -0.0985462 0.103635 1.815
lowerneck -14.9777 0.848452 -0.321774
upperneck 12.9937 1.59351 -2.35891
head 6.4304 0.551116 -0.547791
rclavicle -2.18663e-015 -9.93923e-015
rhumerus -31.3239 -8.16103 -77.2569
rradius 31.4936
rwrist 21.7969
rhand -18.9097 -25.6735
rfingers 7.12502
rthumb 7.39234 -55.5244
lclavicle -2.18663e-015 -9.93923e-015
lhumerus -31.0704 -7.30445 88.9535
lradius 25.0494
lwrist 21.1345
lhand -29.2081 -4.76516
lfingers 7.12502
lthumb -2.55272 25.1993
rfemur -62.0918 -2.95074 20.5705
rtibia 60.5757
rfoot -19.3094 -1.82224
rtoes 4.55217
lfemur -61.8877 8.41584 -22.5781
ltibia 60.2167
lfoot -18.3016 5.74995
ltoes 1.79948
134
root 0.262918 15.7379 -16.4828 21.9582 -1.32156 -1.71612
lowerback 21.3903 0.193387 0.25404
upperback 10.878 0.325337 1.90732
thorax -0.138799 0.102724 1.81892
lowerneck -14.9977 0.863779 -0.31325
upperneck 12.7834 1.61275 -2.39159
head 6.36703 0.560382 -0.557692
rclavicle 3.77691e-015 1.3418e-014
rhumerus -31.3577 -8.1476 -77.2221
rradius 31.5144
rwrist 21.7699
rhand -18.8928 -25.6631
rfingers 7.12502
rthumb 7.40864 -55.5134
lclavicle 3.77691e-015 1.3418e-014
lhumerus -31.1457 -7.32174 88.9692
lradius 25.0306
lwrist 21.1308
lhand -29.2859 -4.83601
lfingers 7.12502
lthumb -2.62779 25.1276
rfemur -62.614 -2.9513 20.6107
rtibia 61.1281
rfoot -19.4406 -1.84298
rtoes 4.47635
lfemur -62.4231 8.44083 -22.6058
ltibia 60.7878
lfoot -18.4259 5.81223
ltoes 1.69764
135
root 0.262211 15.6965 -16.5031 22.0503 -1.33997 -1.73777
lowerback 21.5871 0.195792 0.24207
upperback 10.9286 0.327269 1.90591
thorax -0.180952 0.102747 1.8244
lowerneck -15.0099 0.879904 -0.306021
upperneck 12.5625 1.63279 -2.42368
head 6.29906 0.570249 -0.567146
rclavicle -1.39149e-015 -5.66536e-015
rhumerus -31.3897 -8.12686 -77.1912
rradius 31.5429
rwrist 21.7439
rhand -18.8794 -25.6543
rfingers 7.12502
rthumb 7.42159 -55.5042
lclavicle -1.39149e-015 -5.66536e-015
lhumerus -31.2191 -7.31968 88.9832
lradius 25.029
lwrist 21.1191
lhand -29.3763 -4.8874
lfingers 7.12502
lthumb -2.71517 25.0751
rfemur -63.1286 -2.94627 20.6521
rtibia 61.6764
rfoot -19.572 -1.86566
rtoes 4.39908
lfemur -62.9522 8.47138 -22.6308
ltibia 61.3562
lfoot -18.5502 5.87349
ltoes 1.58653
136
root 0.261312 15.6548 -16.523 22.1398 -1.35703 -1.76208
lowerback 21.7834 0.198412 0.229165
upperback 10.9805 0.329284 1.90681
thorax -0.221176 0.102679 1.83287
lowerneck -15.0178 0.896061 -0.300995
upperneck 12.3297 1.65279 -2.45516
head 6.22664 0.580268 -0.576073
rclavicle 4.57205e-015 -7.35503e-015
rhumerus -31.4146 -8.09951 -77.1648
rradius 31.5755
rwrist 21.7231
rhand -18.8692 -25.6468
rfingers 7.12502
rthumb 7.43141 -55.4963
lclavicle 4.57205e-015 -7.35503e-015
lhumerus -31.2857 -7.298 88.9943
lradius 25.0411
lwrist 21.1165
lhand -29.4723 -4.92602
lfingers 7.12502
lthumb -2.80782 25.0352
rfemur -63.6376 -2.93802 20.6953
rtibia 62.2216
rfoot -19.702 -1.89149
rtoes 4.31688
lfemur -63.4756 8.50374 -22.6522
ltibia 61.922
lfoot -18.6757 5.93326
ltoes 1.48112
137
root 0.260263 15.6133 -16.5424 22.2275 -1.37257 -1.78382
lowerback 21.9756 0.202473 0.212458
upperback 11.0326 0.332383 1.90875
thorax -0.258942 0.102965 1.84439
lowerneck -15.02 0.909072 -0.298353
upperneck 12.0875 1.66795 -2.48207
head 6.15025 0.588422 -0.583648
rclavicle 5.56597e-015 -5.36719e-015
rhumerus -31.4389 -8.07349 -77.1394
rradius 31.6141
rwrist 21.707
rhand -18.8606 -25.6386
rfingers 7.12502
rthumb 7.43969 -55.4878
lclavicle 5.56597e-015 -5.36719e-015
lhumerus -31.3488 -7.27249 89.008
lradius 25.0679
lwrist 21.138
lhand -29.553 -4.95463
lfingers 7.12502
lthumb -2.88577 25.0056
rfemur -64.1405 -2.93093 20.7361
rtibia 62.7631
rfoot -19.8303 -1.9211
rtoes 4.21757
lfemur -63.9927 8.5359 -22.6774
ltibia 62.4831
lfoot -18.7993 5.99874
ltoes 1.34895
138
root 0.259039 15.5716 -16.5614 22.317 -1.38097 -1.80494
lowerback 22.1626 0.205289 0.1979
upperback 11.0816 0.334345 1.91264
thorax -0.297286 0.102757 1.85699
lowerneck -15.0139 0.919848 -0.296313
upperneck 11.8405 1.67986 -2.50874
head 6.07102 0.595171 -0.591402
rclavicle 8.74653e-015 6.06293e-015
rhumerus -31.4664 -8.04779 -77.1148
rradius 31.6545
rwrist 21.6997
rhand -18.8609 -25.6225
rfingers 7.12502
rthumb 7.43942 -55.4717
lclavicle 8.74653e-015 6.06293e-015
lhumerus -31.4117 -7.25309 89.0275
lradius 25.1087
lwrist 21.203
lhand -29.6297 -4.98215
lfingers 7.12502
lthumb -2.95986 24.9771
rfemur -64.6433 -2.92821 20.779
rtibia 63.3022
rfoot -19.9562 -1.95283
rtoes 4.11691
lfemur -64.5091 8.56285 -22.7023
ltibia 63.0401
lfoot -18.92 6.06713
ltoes 1.2158
139
root 0.257739 15.5298 -16.58 22.4123 -1.38751 -1.82288
lowerback 22.3404 0.20882 0.181796
upperback 11.1254 0.336904 1.91653
thorax -0.336584 0.102837 1.87032
lowerneck -15.009 0.930237 -0.291445
upperneck 11.6033 1.69087 -2.53595
head 5.99521 0.601494 -0.599872
rclavicle 5.96354e-016 6.65929e-015
rhumerus -31.4984 -8.02273 -77.0919
rradius 31.6971
rwrist 21.6989
rhand -18.8692 -25.6034
rfingers 7.12502
rthumb 7.43141 -55.4529
lclavicle 5.96354e-016 6.65929e-015
lhumerus -31.4741 -7.24958 89.0559
lradius 25.1575
lwrist 21.3148
lhand -29.6823 -4.9703
lfingers 7.12502
lthumb -3.01069 24.9882
rfemur -65.1505 -2.92868 20.8203
rtibia 63.8383
rfoot -20.0793 -1.98435
rtoes 4.01428
lfemur -65.0285 8.58663 -22.7319
ltibia 63.5917
lfoot -19.0365 6.1396
ltoes 1.07725
140
root 0.256338 15.4879 -16.5984 22.516 -1.38982 -1.83705
lowerback 22.5082 0.211831 0.165647
upperback 11.1632 0.338799 1.92053
thorax -0.377349 0.102658 1.88392
lowerneck -15.0062 0.940826 -0.284608
upperneck 11.3793 1.70204 -2.56346
head 5.9241 0.607818 -0.60874
rclavicle 3.77691e-015 -1.07344e-014
rhumerus -31.5324 -7.99506 -77.0707
rradius 31.7378
rwrist 21.7013
rhand -18.8842 -25.5853
rfingers 7.12502
rthumb 7.41694 -55.4353
lclavicle 3.77691e-015 -1.07344e-014
lhumerus -31.5338 -7.26962 89.0951
lradius 25.211
lwrist 21.4731
lhand -29.7528 -4.98447
lfingers 7.12502
lthumb -3.07869 24.973
rfemur -65.6662 -2.93287 20.8597
rtibia 64.3718
rfoot -20.1977 -2.01463
rtoes 3.92137
lfemur -65.5549 8.60454 -22.7663
ltibia 64.1376
lfoot -19.1482 6.21512
ltoes 0.947647
141
root 0.254882 15.446 -16.6167 22.6288 -1.38848 -1.84715
lowerback 22.6655 0.214903 0.150197
upperback 11.1961 0.340873 1.92427
thorax -0.418202 0.102668 1.89676
lowerneck -15.0107 0.952474 -0.274214
upperneck 11.1734 1.7147 -2.59347
head 5.8601 0.614578 -0.618811
rclavicle 3.18055e-015 1.88845e-014
rhumerus -31.5655 -7.96731 -77.052
rradius 31.776
rwrist 21.7003
rhand -18.8967 -25.5839
rfingers 7.12502
rthumb 7.4049 -55.4343
lclavicle 3.18055e-015 1.88845e-014
lhumerus -31.5884 -7.31823 89.1466
lradius 25.2663
lwrist 21.6571
lhand -29.8146 -4.96717
lfingers 7.12502
lthumb -3.13843 24.9895
rfemur -66.1906 -2.9407 20.8967
rtibia 64.9016
rfoot -20.3112 -2.04376
rtoes 3.83877
lfemur -66.0887 8.61692 -22.8059
ltibia 64.6764
lfoot -19.2532 6.28981
ltoes 0.833177
